<?xml version="1.0" encoding="iso-8859-1"?>
<!-- Generator: Adobe Illustrator 19.0.0, SVG Export Plug-In . SVG Version: 6.00 Build 0)  -->
<svg version="1.1" id="Capa_1" xmlns="http://www.w3.org/2000/svg" xmlns:xlink="http://www.w3.org/1999/xlink" x="0px" y="0px"
	 viewBox="0 0 512 512" style="enable-background:new 0 0 512 512;" xml:space="preserve">
<path style="fill:#0d6178;" d="M407.003,496c-3.903,0-7.74-1.524-10.609-4.394L310.787,406H135c-8.284,0-15-6.716-15-15
	s6.716-15,15-15h182c3.979,0,7.794,1.581,10.606,4.394L392,444.786V391c0-8.284,6.716-15,15-15h60c8.271,0,15-6.729,15-15V121
	c0-8.271-6.729-15-15-15h-60c-8.284,0-15-6.716-15-15s6.716-15,15-15h60c24.813,0,45,20.187,45,45v240c0,24.813-20.187,45-45,45h-45
	v75c0,6.067-3.654,11.537-9.26,13.858C410.885,495.627,408.936,496,407.003,496z"/>
<path style="fill:#0d6178;" d="M104.997,436c-1.932,0-3.881-0.374-5.737-1.142C93.655,432.536,90,427.067,90,421v-75H45
	c-24.813,0-45-20.187-45-45V61c0-24.813,20.187-45,45-45h332c24.813,0,45,20.187,45,45v240c0,24.813-20.187,45-45,45H201.213
	l-85.607,85.606C112.737,434.476,108.9,436,104.997,436z M45,46c-8.271,0-15,6.729-15,15v240c0,8.271,6.729,15,15,15h60
	c8.284,0,15,6.716,15,15v53.787l64.394-64.393C187.207,317.58,191.021,316,195,316h182c8.271,0,15-6.729,15-15V61
	c0-8.271-6.729-15-15-15H45z"/>
<g>
	<path style="fill:#0d6178;" d="M287,136H75c-8.284,0-15-6.716-15-15s6.716-15,15-15h212c8.284,0,15,6.716,15,15
		S295.284,136,287,136z"/>
	<path style="fill:#0d6178;" d="M347,196H75c-8.284,0-15-6.716-15-15s6.716-15,15-15h272c8.284,0,15,6.716,15,15
		S355.284,196,347,196z"/>
	<path style="fill:#0d6178;" d="M227,256H75c-8.284,0-15-6.716-15-15s6.716-15,15-15h152c8.284,0,15,6.716,15,15
		S235.284,256,227,256z"/>
</g>
<g>
</g>
<g>
</g>
<g>
</g>
<g>
</g>
<g>
</g>
<g>
</g>
<g>
</g>
<g>
</g>
<g>
</g>
<g>
</g>
<g>
</g>
<g>
</g>
<g>
</g>
<g>
</g>
<g>
</g>
</svg>
