<svg id="Capa_1" enable-background="new 0 0 510 510" height="512" viewBox="0 0 510 510" width="512" xmlns="http://www.w3.org/2000/svg" xmlns:xlink="http://www.w3.org/1999/xlink"><linearGradient id="lg1"><stop offset="0" stop-color="#5558ff"/><stop offset="1" stop-color="#00c0ff"/></linearGradient><linearGradient id="SVGID_1_" gradientUnits="userSpaceOnUse" x1="255" x2="255" xlink:href="#lg1" y1="480" y2="0"/><linearGradient id="SVGID_2_" gradientUnits="userSpaceOnUse" x1="255" x2="255" xlink:href="#lg1" y1="273.339" y2="150"/><linearGradient id="SVGID_3_" gradientUnits="userSpaceOnUse" x1="255" x2="255" y1="510" y2="90"><stop offset="0" stop-color="#addcff"/><stop offset=".5028" stop-color="#eaf6ff"/><stop offset="1" stop-color="#eaf6ff"/></linearGradient><g><path d="m401.924 158.921-2.08-25.474c-6.387-76.069-68.658-133.447-144.844-133.447s-138.457 57.378-144.858 133.491l-2.065 25.43c-11.207 8.452-18.077 21.811-18.077 36.079v30c0 10.122 3.589 20.024 10.02 28.125l-9.244 226.875h328.447l-9.243-226.875c6.431-8.101 10.02-18.003 10.02-28.125v-30c0-14.268-6.87-27.627-18.076-36.079z" fill="url(#SVGID_1_)"/><g><g><path d="m150 225v-60c0-5.493.817-10.234 1.6-15h-16.6c-24.814 0-45 20.186-45 45v30c0 24.814 20.186 45 45 45h25.649c-1.549-3.354 100.436 15 105.436-10.201-1.999-43.799-116.085-22.2-116.085-34.799zm225-75h-15v15 60c0 8.069-1.009 15.914-2.84 23.476-1.716 7.511-4.405 14.636-7.687 21.486-.006.013-.009.026-.015.038h25.542c24.814 0 45-20.186 45-45v-30c0-24.814-20.186-45-45-45z" fill="url(#SVGID_2_)"/></g></g><g><g><path d="m315 332.999v-22.2c28.2-19.501 45-51 45-85.8v-75c-69.6 9.899-122.999-54-123.6-54.6-2.701-3.3-6.899-5.4-11.4-5.4-25.8 0-75 15.601-75 75v60c0 5.099.3 10.199 1.199 15h88.801c8.401 0 15 6.599 15 15 0 8.399-6.599 15-15 15h-79.501c7.5 16.5 19.2 30.599 34.501 41.1v21.899l60 72.002zm164.399 158.401-16.5-66c-7.2-28.2-25.799-52.5-51-66.601-8.999-4.799-17.999-8.399-27.899-10.499l-69-15.3 42.001 36c6.599 5.099 8.099 14.399 2.999 21l-45 60c-2.999 3.9-7.5 6-12.001 6-2.999 0-6.299-.901-9-3.001l-38.999-29.399-39 29.399c-2.701 2.1-5.7 3.001-9 3.001h-2.1c-3.9-.601-7.5-2.701-9.901-6l-45-60c-5.099-6.601-3.6-15.901 2.999-21l42.001-36-68.699 15.3c-10.201 2.1-19.2 5.7-28.2 10.499-25.2 14.101-43.8 38.401-51.3 66.601l-16.199 66c-1.201 4.499-.3 9.3 2.699 12.9 2.701 3.6 7.2 5.7 11.7 5.7h420c4.501 0 9-2.1 11.7-5.7 3-3.6 3.901-8.401 2.699-12.9z" fill="url(#SVGID_3_)"/></g></g></g></svg>