<?xml version="1.0" encoding="iso-8859-1"?>
<!-- Generator: Adobe Illustrator 19.0.0, SVG Export Plug-In . SVG Version: 6.00 Build 0)  -->
<svg version="1.1" id="Capa_1" xmlns="http://www.w3.org/2000/svg" xmlns:xlink="http://www.w3.org/1999/xlink" x="0px" y="0px"
	 viewBox="0 0 512 512" style="enable-background:new 0 0 512 512;" xml:space="preserve">
<path style="fill:#05c5fa;" d="M316.387,512c-86.633,0-157.113-70.481-157.113-157.113V316h30v38.887
	c0,70.09,57.022,127.113,127.113,127.113S443.5,424.977,443.5,354.887v-86.321h30v86.321C473.5,441.519,403.02,512,316.387,512z"/>
<g>
	<path style="fill:#05c5fa;" d="M174.273,331c-48.07,0-91.64-28.43-110.998-72.429L15.751,150.562
		C10.276,138.12,7.5,124.917,7.5,111.323V97.432C7.5,43.708,51.208,0,104.932,0h20.016v30h-20.016C67.75,30,37.5,60.25,37.5,97.432
		v13.891c0,9.409,1.921,18.546,5.71,27.157l47.524,108.009C105.305,279.604,138.096,301,174.273,301s68.969-21.396,83.539-54.511
		l47.524-108.009c3.789-8.611,5.71-17.748,5.71-27.157V97.432c0-37.182-30.25-67.432-67.432-67.432H223.6V0h20.016
		c53.724,0,97.432,43.708,97.432,97.432v13.891c0,13.595-2.776,26.797-8.251,39.239l-47.524,108.009
		C265.913,302.57,222.344,331,174.273,331z"/>
	<path style="fill:#05c5fa;" d="M458.5,196.581l-20.016,46l20.016,46c25.405,0,46-20.595,46-46S483.905,196.581,458.5,196.581z"/>
</g>
<path style="fill:#05c5fa;" d="M412.5,242.581c0,25.405,20.595,46,46,46v-92C433.095,196.581,412.5,217.176,412.5,242.581z"/>
<g>
</g>
<g>
</g>
<g>
</g>
<g>
</g>
<g>
</g>
<g>
</g>
<g>
</g>
<g>
</g>
<g>
</g>
<g>
</g>
<g>
</g>
<g>
</g>
<g>
</g>
<g>
</g>
<g>
</g>
</svg>
